# xmcd
#
# Track frame offsets: 
#        150
#        21650
#        43789
#        60815
#        82227
#        100484
#        117925
#        146452
#
# Disc length: 2204 seconds
#
# Revision: 1
# Processed by: cddbd v1.5.2PL0 Copyright (c) Steve Scherf et al.
# Submitted via: ExactAudioCopy v0.99pb4
#
DISCID=6d089a08
DTITLE=Herb Ellis - Ellis in Wonderland
DYEAR=1956
DGENRE=Bop
TTITLE0=Sweetheart Blues
TTITLE1=Somebody Loves Me
TTITLE2=It Could Happen to You
TTITLE3=Pogo
TTITLE4=Detour Ahead
TTITLE5=Ellis in Wonderland
TTITLE6=Have You Met Miss Jones?
TTITLE7=A Simple Tune
EXTD=Harry "Sweets" Edison (1915/1999): trumpet\nCharlie Mariano (b.19
EXTD=23) (tracks 5-8): alto sax\nJimmy Giuffre (1921/2008): tenor sax,
EXTD=baritone sax, clarinet\nOscar Peterson (1925/2007): piano\nHerb 
EXTD=Ellis (b.1921): guitar\nRay Brown (1926/2002): bass\nAlvin Stolle
EXTD=r (1925/1992): drums\nRecorded in Hollywood US-CA at Radio Record
EXTD=ers, 1955-12-28 (1-4), and Capitol Studios, 1956-01-03 (5-8).\nPr
EXTD=oduced by Norman Granz (1918/2001).\nOriginally issued as Norgran
EXTD=MGN-1081 (1956-02).\nReissue produced by Bryan Koniarz.\nMastere
EXTD=d by Bob Irwin and Jayme Pieruzzi at Sundazed Studios, Coxsackie 
EXTD=US-NY.\nExecutive producer: Ken Druker\nCD: UMG/Verve B0005930-02
EXTD=(2006-01-24), UPC 602498880234.
EXTT0=(Herb Ellis)
EXTT1=(George Gershwin//Buddy DeSylva/Ballard Macdonald)
EXTT2=(Jimmy Van Heusen//Johnny Burke)
EXTT3=(Herb Ellis)
EXTT4=(Lou Carter/Herb Ellis/Johnny Frigo)
EXTT5=(Herb Ellis)
EXTT6=(Richard Rodgers//Lorenz Hart)
EXTT7=(Jimmy Giuffre]\nAKA "A Simple Tune (Beyond the Moon)".
PLAYORDER=
